<svg width="40" height="40" viewBox="0 0 40 40" fill="none" xmlns="http://www.w3.org/2000/svg">
<path d="M36.6666 33.7821L26.7243 23.8381C28.3265 21.6363 29.1884 18.9827 29.1858 16.2596C29.1858 9.13221 23.3869 3.33333 16.2595 3.33333C9.13213 3.33333 3.33325 9.13221 3.33325 16.2596C3.33325 23.387 9.13213 29.1859 16.2595 29.1859C18.9826 29.1885 21.6362 28.3266 23.8381 26.7244L33.782 36.6667L36.6666 33.7821ZM16.2595 25.1034C14.5102 25.1035 12.8001 24.5849 11.3455 23.6131C9.89086 22.6413 8.75711 21.26 8.08759 19.6438C7.41806 18.0277 7.24284 16.2493 7.58409 14.5335C7.92533 12.8178 8.76771 11.2418 10.0047 10.0048C11.2417 8.76779 12.8177 7.92541 14.5334 7.58417C16.2492 7.24292 18.0276 7.41814 19.6438 8.08767C21.2599 8.75719 22.6413 9.89094 23.613 11.3455C24.5848 12.8001 25.1034 14.5103 25.1033 16.2596C25.1005 18.6043 24.1679 20.8521 22.51 22.51C20.852 24.168 18.6042 25.1006 16.2595 25.1034Z" fill="#BBC4CE"/>
</svg>
