<svg width="32" height="29" viewBox="0 0 32 29" fill="none" xmlns="http://www.w3.org/2000/svg">
<path d="M28.0191 26.76L28.0096 26.7599H28H4H3.99044L3.98089 26.76C3.35067 26.768 2.73171 26.5172 2.26233 26.0436C1.79341 25.5705 1.51354 24.9132 1.5 24.2112V4.07454C1.51354 3.37252 1.79341 2.71519 2.26233 2.24207C2.73171 1.76849 3.35067 1.51767 3.98089 1.5257L3.99044 1.52582H4H11.3511C11.3567 1.52606 11.3639 1.52748 11.3729 1.53193C11.3828 1.5369 11.3965 1.54653 11.4101 1.56396L11.4101 1.56397L11.4136 1.56848L15.5736 6.84991L16.0241 7.42176H16.752H27.952H27.971L27.99 7.42128C28.3057 7.41327 28.621 7.47013 28.9183 7.58998C29.2158 7.70988 29.4911 7.89122 29.727 8.12643C29.9631 8.36176 30.1548 8.64631 30.2886 8.96517C30.4211 9.28101 30.4934 9.62264 30.5 9.97032V24.2112C30.4865 24.9132 30.2066 25.5705 29.7377 26.0436C29.2683 26.5172 28.6493 26.768 28.0191 26.76Z" stroke="#BBC4CE" stroke-width="3"/>
</svg>
