<svg width="22" height="22" viewBox="0 0 22 22" fill="none" xmlns="http://www.w3.org/2000/svg">
<path d="M18.6607 2.97918H14.2411L13.8949 2.30959C13.8215 2.16643 13.7086 2.04602 13.5687 1.96188C13.4288 1.87775 13.2675 1.83324 13.103 1.83335H8.8933C8.72918 1.83274 8.5682 1.87708 8.4288 1.96131C8.2894 2.04554 8.17723 2.16624 8.10513 2.30959L7.75893 2.97918H3.33929C3.183 2.97918 3.03311 3.03954 2.9226 3.14699C2.81209 3.25443 2.75 3.40015 2.75 3.5521V4.69793C2.75 4.84988 2.81209 4.9956 2.9226 5.10304C3.03311 5.21049 3.183 5.27085 3.33929 5.27085H18.6607C18.817 5.27085 18.9669 5.21049 19.0774 5.10304C19.1879 4.9956 19.25 4.84988 19.25 4.69793V3.5521C19.25 3.40015 19.1879 3.25443 19.0774 3.14699C18.9669 3.03954 18.817 2.97918 18.6607 2.97918ZM4.70938 18.5553C4.73748 18.9917 4.93557 19.4012 5.26332 19.7006C5.59108 20 6.02385 20.1666 6.47355 20.1667H15.5265C15.9762 20.1666 16.4089 20 16.7367 19.7006C17.0644 19.4012 17.2625 18.9917 17.2906 18.5553L18.0714 6.41668H3.92857L4.70938 18.5553Z" fill="#F93232"/>
</svg>
