<svg width="25" height="24" viewBox="0 0 25 24" fill="none" xmlns="http://www.w3.org/2000/svg">
<path d="M20.2143 10.4643H14.4286V4.35714C14.4286 3.60775 13.8528 3 13.1429 3H11.8571C11.1472 3 10.5714 3.60775 10.5714 4.35714V10.4643H4.78571C4.07576 10.4643 3.5 11.072 3.5 11.8214V13.1786C3.5 13.928 4.07576 14.5357 4.78571 14.5357H10.5714V20.6429C10.5714 21.3923 11.1472 22 11.8571 22H13.1429C13.8528 22 14.4286 21.3923 14.4286 20.6429V14.5357H20.2143C20.9242 14.5357 21.5 13.928 21.5 13.1786V11.8214C21.5 11.072 20.9242 10.4643 20.2143 10.4643Z" fill="white"/>
</svg>
