<svg width="54" height="54" viewBox="0 0 54 54" fill="none" xmlns="http://www.w3.org/2000/svg">
<circle opacity="0.4" cx="27" cy="27" r="27" fill="white"/>
<path d="M27.5 18C24.8808 18 22.75 20.1249 22.75 22.7368C22.75 25.3487 24.8808 27.4737 27.5 27.4737C30.1191 27.4737 32.25 25.3487 32.25 22.7368C32.25 20.1249 30.1191 18 27.5 18ZM27.5 25.5789C25.9287 25.5789 24.65 24.3038 24.65 22.7368C24.65 21.1699 25.9287 19.8947 27.5 19.8947C29.0713 19.8947 30.35 21.1699 30.35 22.7368C30.35 24.3038 29.0713 25.5789 27.5 25.5789ZM36.05 36V35.0526C36.05 31.3967 33.066 28.4211 29.4 28.4211H25.6C21.933 28.4211 18.95 31.3967 18.95 35.0526V36H20.85V35.0526C20.85 32.4407 22.9808 30.3158 25.6 30.3158H29.4C32.0191 30.3158 34.15 32.4407 34.15 35.0526V36H36.05Z" fill="white"/>
</svg>
